<svg width="1134" height="741" viewBox="0 0 1134 741" fill="none" xmlns="http://www.w3.org/2000/svg">
<path d="M579.333 2.86663C572.8 5.79996 561.6 17.6666 557.733 25.6666C556.133 29 553.2 38.8666 551.2 47.6666C549.333 56.4666 546.533 67.5333 545.2 72.2C543.733 76.8666 542.667 81.8 542.667 83.4C542.667 84.8666 541.467 89.8 540.133 94.2C535.867 107.533 530.533 127.4 525.2 149.667C519.467 173.667 518.533 177.267 516.667 183C515.733 186.333 514.4 191.4 514 194.333C513.467 197.267 512 203.267 510.667 207.667C509.333 212.067 507.867 218.067 507.333 221C506.933 223.933 505.6 229.267 504.533 233C503.6 236.6 501.733 243.267 500.667 247.667C499.467 252.067 497.467 259.8 496 265C494.667 270.067 492.8 277 491.867 280.333C489.867 287.8 485.067 305.133 482 315.667C480.667 320.067 478.8 327.533 477.867 332.333C476 341.933 473.333 352.467 469.467 365.667C468 370.467 466.533 376.867 466 380.067C465.067 385.933 461.6 389.667 456.933 389.667C454.8 389.667 446 385.4 433.2 378.067C424.533 373.133 423.467 372.467 416.667 369.667C407.6 365.8 385.333 361.667 374 361.667C335.733 361.667 288.933 396.867 266.933 442.333C260.667 455.267 257.467 466.733 256.133 481.4C255.067 492.733 254.267 496.2 251.467 500.467C249.467 503.267 247.867 505.667 247.6 505.8C245.2 507 188 508.6 116 509.667C66.5333 510.333 22.8 511.4 18.8 512.067C11.0666 513.267 5.33331 518.067 5.33331 523.133C5.33331 527.8 13.3333 533.667 22.6666 535.667C25.2 536.2 32.6666 539.267 39.3333 542.467C45.8666 545.667 52 548.333 52.9333 548.333C53.7333 548.333 56.1333 549.133 58.2666 550.2C61.7333 552.067 69.4666 555.533 83.3333 561.667C89.3333 564.333 113.333 575.667 119.333 578.6C121.6 579.667 127.867 582.2 133.333 584.067C142.667 587.133 145.467 587.4 174.4 587.933C208.533 588.6 220.133 587.133 245.333 579.4C266.4 573 270.133 571.533 295.067 559.8C306.8 554.2 309.2 553.667 321.067 552.867C330.267 552.2 337.6 552.6 346.4 554.2C353.067 555.4 361.6 556.333 365.2 556.333C374.667 556.333 402.133 552.6 410 550.2C413.733 549.133 422.8 547.8 430.267 547.4C445.6 546.467 444.133 545.933 469.333 562.333C488.933 575.133 499.6 579.933 517.333 583.8C522.8 584.867 529.733 586.467 532.667 587C539.333 588.467 580.133 588.6 592.667 587.133C609.467 585.133 622.4 581 644.8 570.2C651.467 567 657.333 564.333 657.733 564.333C658.267 564.333 663.6 561.933 669.6 559.133C688.4 550.2 706.933 542.867 715.333 540.867C719.733 539.933 725.467 538.467 728 537.667C730.533 537 740.133 536.333 749.2 536.333C762.4 536.333 767.6 536.867 774.533 539.133C790.933 544.333 805.2 550.733 819.467 559.267C825.467 562.733 830.8 565.667 831.333 565.667C832 565.667 833.467 566.467 834.533 567.533C838.4 570.867 860.267 578.733 881.333 584.333C898.267 588.733 923.067 590.333 948 588.467C970.4 586.867 974.8 585.533 1009.47 570.467C1017.33 567.133 1024.4 564.333 1025.33 564.333C1026.13 564.333 1028.53 563.4 1030.4 562.333C1032.4 561.267 1036.4 559.533 1039.33 558.467C1054 553.133 1075.2 545.4 1086 541.267C1092.67 538.733 1101.6 536.333 1106 535.8C1117.87 534.467 1123.73 532.333 1127.47 527.933C1131.47 523.267 1131.47 521.4 1127.73 517C1125.2 514.2 1122.8 513.267 1114 512.2C1106.93 511.133 1019.07 510.333 855.333 509.533C584.533 508.2 520.267 507.267 510.667 504.067C503.333 501.667 498.667 495.533 498.667 488.333C498.667 482.733 503.333 453.933 505.2 447.667C505.867 445.4 506.8 441 507.333 437.667C507.867 434.333 509.333 427.4 510.667 422.333C512 417.133 513.467 409.933 514 406.333C514.533 402.6 515.733 397 516.667 393.667C517.733 390.333 518.933 385 519.333 381.667C519.867 378.333 521.333 371.8 522.667 367C525.333 358.067 528.267 345.667 531.333 331.667C532.267 327.267 534.933 316.467 537.333 307.667C539.733 298.867 542.133 288.733 542.8 285.133C543.333 281.667 544.8 275.933 545.867 272.467C546.933 269.133 548.267 264.2 548.667 261.667C549.2 259.133 550.667 253.4 552 249C553.333 244.6 555.067 238.333 555.867 235C556.8 231.667 558.933 223.533 560.8 217C562.667 210.333 564.8 202.333 565.467 199C566.267 195.667 567.733 189.8 568.933 185.8C570 181.933 571.333 174.2 571.867 168.6C572.8 158.333 574.933 155 580 155C590.133 155 622.4 183.4 635.067 203.4C644.267 217.8 646 221.8 650.133 237.933C654.8 256.467 655.067 279.267 650.667 298.467C643.867 328.467 639.2 341.8 627.733 364.333C617.333 384.6 616.667 389 623.2 392.2C626.667 393.8 628 393.8 633.867 391.667C642.533 388.6 650.667 384.067 660.8 376.467C672.8 367.267 678.533 360.467 691.067 340.2C695.067 333.533 705.6 305 706.667 297.667C707.2 293.667 708.4 287.667 709.333 284.333C710.4 280.867 711.067 269.533 711.2 257C711.467 216.333 705.067 198.6 677.2 162.333C670 153 657.6 138.333 652.133 132.733C651.067 131.667 644.933 124.467 638.667 116.867C625.2 100.867 616.8 88.6 610.667 76.3333C608.4 71.5333 605.867 66.6 605.067 65.1333C601.6 58.6 596.267 34.7333 595.467 22.0666C594.533 6.06663 594.4 5.53329 589.467 2.59996C584.8 -0.0667076 585.867 -0.200041 579.333 2.86663ZM383.067 391.8C397.6 395.533 407.2 400.733 416.533 410.067C426.4 419.933 429.467 425.267 433.333 439.133C436.8 451.667 436.667 462.2 433.2 474.867C429.2 489 426.667 493.533 416.533 503.533C407.067 513.133 402.8 515.667 388.667 520.333C355.467 531.267 316.8 511.4 306.667 478.2C298 449.933 306.267 422.2 328.667 404.333C336 398.467 339.333 396.867 352.267 393.133C365.333 389.267 372.133 388.867 383.067 391.8Z" fill="white"/>
<path d="M348.667 602.333C337.2 604.067 328.8 606.2 326 608.467C325.333 609 321.467 610.6 317.6 612.067C313.733 613.533 305.467 617.8 299.2 621.533C293.067 625.267 287.6 628.333 287.2 628.333C286.8 628.333 278.4 633.4 268.8 639.533C238.8 658.733 233.6 660.2 195.333 661.267C165.867 662.2 148.267 660.333 137.733 655.533C134 653.8 130.133 652.333 129.2 652.333C128.4 652.333 122.667 649 116.667 645.133C100.667 634.333 87.3333 626.467 76 620.867C51.7333 609 42.8 606.6 25.4666 607.267C13.7333 607.667 12 608.067 7.73331 611.267C1.73331 615.8 -0.666693 623.933 0.533307 635.133C1.33331 643.667 4.93331 653.267 8.13331 655.8C10.8 657.933 22.1333 663.533 30.6666 667.133C50.8 675.4 66.4 683.667 75.2 690.867C92 704.467 129.067 728.333 133.333 728.333C134.133 728.333 137.333 729.533 140.533 731C146.133 733.533 157.733 736.333 174 739.133C188.933 741.8 213.333 738.467 237.333 730.733C254.4 725.133 272.533 714.733 310.933 688.467C318.933 683 342.267 672.067 352.667 669C362.8 665.933 387.067 665.533 396.667 668.2C414 673.133 428 679.933 447.867 692.867C467.867 705.933 470.933 707.933 477.067 712.333C480.133 714.467 483.067 716.333 483.333 716.333C483.733 716.333 488.667 718.867 494.267 722.067C506 728.467 515.467 732.067 532 736.467C548 740.733 573.333 740.733 589.333 736.467C607.333 731.8 628 723 640.667 714.867C649.467 709.133 666.4 697.933 678 689.933C697.333 676.733 705.733 673.133 728 668.333C749.2 663.8 759.2 665.533 784.533 677.667C791.2 680.867 801.333 686.733 807.2 690.733C822.133 700.867 845.467 716.6 849.467 719C860.133 725.533 878.133 732.867 894.933 737.533C913.467 742.6 937.067 740.6 963.333 731.933C968.533 730.2 976.933 727.4 982 725.667C1002.8 718.867 1022.93 707.267 1028.8 698.467C1031.2 694.867 1033.07 693.667 1035.73 693.667C1039.33 693.667 1044.27 690.867 1056.67 681.8C1063.47 676.867 1082 670.733 1108.27 665C1117.87 662.867 1123.47 659.4 1129.33 652.067L1134 646.333L1133.87 631.533C1133.47 607.533 1130.67 604.333 1109.33 604.333C1069.2 604.333 1047.2 609.933 1020 627.133C1018.13 628.333 1012.93 631.667 1008.27 634.467C1003.6 637.4 995.467 642.467 990.267 645.933C984.933 649.533 979.733 652.333 978.667 652.333C977.6 652.333 974.267 653.533 971.333 655.133C967.6 657.133 961.2 658.467 948.133 659.8C926 662.067 912.267 662.067 892.133 660.2C870 658.067 864.933 655.933 833.333 634.6C805.467 615.8 800.133 612.333 799.067 612.333C798.533 612.333 795.333 610.867 792 609.133C783.6 604.733 770.4 603 745.067 603C701.867 603.133 690.933 605.4 670.667 618.333C665.867 621.4 655.733 627.667 648 632.333C640.267 637 630.133 643.267 625.333 646.333C612.133 654.733 604.8 657.267 587.067 659.533C567.6 662.067 559.6 662.067 536 659.8C523.333 658.6 516.133 657.267 511.733 655.267C508.267 653.667 504.8 652.333 504 652.333C503.067 652.333 500.8 651.267 498.933 649.933C494 646.733 491.333 645.133 481.333 639.533C476.533 636.867 468 631.267 462.133 627.133C456.4 623 449.467 618.2 446.8 616.333C438.267 610.2 425.6 606.067 410.667 604.467C366 599.667 367.2 599.667 348.667 602.333Z" fill="white"/>
</svg>
