<?xml version="1.0" standalone="no"?>
<!DOCTYPE svg PUBLIC "-//W3C//DTD SVG 20010904//EN"
 "http://www.w3.org/TR/2001/REC-SVG-20010904/DTD/svg10.dtd">
<svg version="1.0" xmlns="http://www.w3.org/2000/svg"
 width="900.000000pt" height="900.000000pt" viewBox="0 0 900.000000 900.000000"
 preserveAspectRatio="xMidYMid meet">
<metadata>
Created by potrace 1.10, written by Peter Selinger 2001-2011
</metadata>
<g transform="translate(0.000000,900.000000) scale(0.100000,-0.100000)"
fill="#000000" stroke="none">
<path d="M4585 7831 c-49 -22 -133 -111 -162 -171 -12 -25 -34 -99 -49 -165
-14 -66 -35 -149 -45 -184 -11 -35 -19 -72 -19 -84 0 -11 -9 -48 -19 -81 -32
-100 -72 -249 -112 -416 -43 -180 -50 -207 -64 -250 -7 -25 -17 -63 -20 -85
-4 -22 -15 -67 -25 -100 -10 -33 -21 -78 -25 -100 -3 -22 -13 -62 -21 -90 -7
-27 -21 -77 -29 -110 -9 -33 -24 -91 -35 -130 -10 -38 -24 -90 -31 -115 -15
-56 -51 -186 -74 -265 -10 -33 -24 -89 -31 -125 -14 -72 -34 -151 -63 -250
-11 -36 -22 -84 -26 -108 -7 -44 -33 -72 -68 -72 -16 0 -82 32 -178 87 -65 37
-73 42 -124 63 -68 29 -235 60 -320 60 -287 0 -638 -264 -803 -605 -47 -97
-71 -183 -81 -293 -8 -85 -14 -111 -35 -143 -15 -21 -27 -39 -29 -40 -18 -9
-447 -21 -987 -29 -371 -5 -699 -13 -729 -18 -58 -9 -101 -45 -101 -83 0 -35
60 -79 130 -94 19 -4 75 -27 125 -51 49 -24 95 -44 102 -44 6 0 24 -6 40 -14
26 -14 84 -40 188 -86 45 -20 225 -105 270 -127 17 -8 64 -27 105 -41 70 -23
91 -25 308 -29 256 -5 343 6 532 64 158 48 186 59 373 147 88 42 106 46 195
52 69 5 124 2 190 -10 50 -9 114 -16 141 -16 71 0 277 28 336 46 28 8 96 18
152 21 115 7 104 11 293 -112 147 -96 227 -132 360 -161 41 -8 93 -20 115 -24
50 -11 356 -12 450 -1 126 15 223 46 391 127 50 24 94 44 97 44 4 0 44 18 89
39 141 67 280 122 343 137 33 7 76 18 95 24 19 5 91 10 159 10 99 0 138 -4
190 -21 123 -39 230 -87 337 -151 45 -26 85 -48 89 -48 5 0 16 -6 24 -14 29
-25 193 -84 351 -126 127 -33 313 -45 500 -31 168 12 201 22 461 135 59 25
112 46 119 46 6 0 24 7 38 15 15 8 45 21 67 29 110 40 269 98 350 129 50 19
117 37 150 41 89 10 133 26 161 59 30 35 30 49 2 82 -19 21 -37 28 -103 36
-53 8 -712 14 -1940 20 -2031 10 -2513 17 -2585 41 -55 18 -90 64 -90 118 0
42 35 258 49 305 5 17 12 50 16 75 4 25 15 77 25 115 10 39 21 93 25 120 4 28
13 70 20 95 8 25 17 65 20 90 4 25 15 74 25 110 20 67 42 160 65 265 7 33 27
114 45 180 18 66 36 142 41 169 4 26 15 69 23 95 8 25 18 62 21 81 4 19 15 62
25 95 10 33 23 80 29 105 7 25 23 86 37 135 14 50 30 110 35 135 6 25 17 69
26 99 8 29 18 87 22 129 7 77 23 102 61 102 76 0 318 -213 413 -363 69 -108
82 -138 113 -259 35 -139 37 -310 4 -454 -51 -225 -86 -325 -172 -494 -78
-152 -83 -185 -34 -209 26 -12 36 -12 80 4 65 23 126 57 202 114 90 69 133
120 227 272 30 50 109 264 117 319 4 30 13 75 20 100 8 26 13 111 14 205 2
305 -46 438 -255 710 -54 70 -147 180 -188 222 -8 8 -54 62 -101 119 -101 120
-164 212 -210 304 -17 36 -36 73 -42 84 -26 49 -66 228 -72 323 -7 120 -8 124
-45 146 -35 20 -27 21 -76 -2z m-1472 -2917 c109 -28 181 -67 251 -137 74 -74
97 -114 126 -218 26 -94 25 -173 -1 -268 -30 -106 -49 -140 -125 -215 -71 -72
-103 -91 -209 -126 -249 -82 -539 67 -615 316 -65 212 -3 420 165 554 55 44
80 56 177 84 98 29 149 32 231 10z"/>
<path d="M2855 3335 c-86 -13 -149 -29 -170 -46 -5 -4 -34 -16 -63 -27 -29
-11 -91 -43 -138 -71 -46 -28 -87 -51 -90 -51 -3 0 -66 -38 -138 -84 -225
-144 -264 -155 -551 -163 -221 -7 -353 7 -432 43 -28 13 -57 24 -64 24 -6 0
-49 25 -94 54 -120 81 -220 140 -305 182 -182 89 -249 107 -379 102 -88 -3
-101 -6 -133 -30 -45 -34 -63 -95 -54 -179 6 -64 33 -136 57 -155 20 -16 105
-58 169 -85 151 -62 268 -124 334 -178 126 -102 404 -281 436 -281 6 0 30 -9
54 -20 42 -19 129 -40 251 -61 112 -20 295 5 475 63 128 42 264 120 552 317
60 41 235 123 313 146 76 23 258 26 330 6 130 -37 235 -88 384 -185 150 -98
173 -113 219 -146 23 -16 45 -30 47 -30 3 0 40 -19 82 -43 88 -48 159 -75 283
-108 120 -32 310 -32 430 0 135 35 290 101 385 162 66 43 193 127 280 187 145
99 208 126 375 162 159 34 234 21 424 -70 50 -24 126 -68 170 -98 112 -76 287
-194 317 -212 80 -49 215 -104 341 -139 139 -38 316 -23 513 42 39 13 102 34
140 47 156 51 307 138 351 204 18 27 32 36 52 36 27 0 64 21 157 89 51 37 190
83 387 126 72 16 114 42 158 97 l35 43 -1 111 c-3 180 -24 204 -184 204 -301
0 -466 -42 -670 -171 -14 -9 -53 -34 -88 -55 -35 -22 -96 -60 -135 -86 -40
-27 -79 -48 -87 -48 -8 0 -33 -9 -55 -21 -28 -15 -76 -25 -174 -35 -166 -17
-269 -17 -420 -3 -166 16 -204 32 -441 192 -209 141 -249 167 -257 167 -4 0
-28 11 -53 24 -63 33 -162 46 -352 46 -324 -1 -406 -18 -558 -115 -36 -23
-112 -70 -170 -105 -58 -35 -134 -82 -170 -105 -99 -63 -154 -82 -287 -99
-146 -19 -206 -19 -383 -2 -95 9 -149 19 -182 34 -26 12 -52 22 -58 22 -7 0
-24 8 -38 18 -37 24 -57 36 -132 78 -36 20 -100 62 -144 93 -43 31 -95 67
-115 81 -64 46 -159 77 -271 89 -335 36 -326 36 -465 16z"/>
</g>
</svg>
